<svg xmlns="http://www.w3.org/2000/svg" xmlns:xlink="http://www.w3.org/1999/xlink" width="60" height="60" viewBox="0 0 60 60">
  <defs>
    <clipPath id="clip-icon-skills">
      <rect width="60" height="60"/>
    </clipPath>
  </defs>
  <g id="icon-skills" clip-path="url(#clip-icon-skills)">
    <rect width="60" height="60" fill="#fff"/>
    <circle id="Ellipse_22" data-name="Ellipse 22" cx="30" cy="30" r="30" fill="#bbb"/>
    <path id="Union_35" data-name="Union 35" d="M-494.544-35.074l-2.2-1.679-2.2,1.679a.351.351,0,0,1-.428,0,.4.4,0,0,1-.132-.429l.838-2.715-2.194-1.679a.391.391,0,0,1-.132-.428.366.366,0,0,1,.346-.266h2.712l.838-2.715a.366.366,0,0,1,.347-.266.366.366,0,0,1,.347.266l.838,2.715h2.712a.369.369,0,0,1,.347.266.4.4,0,0,1-.132.428l-2.2,1.679.838,2.715a.4.4,0,0,1-.132.429.355.355,0,0,1-.215.073A.349.349,0,0,1-494.544-35.074Zm-1.98-2.462,1.5,1.147-.574-1.858a.4.4,0,0,1,.132-.429l1.5-1.147h-1.856a.367.367,0,0,1-.346-.266l-.574-1.858-.574,1.858a.367.367,0,0,1-.346.266h-1.856l1.5,1.147a.4.4,0,0,1,.132.429l-.574,1.858,1.5-1.147a.348.348,0,0,1,.215-.074A.346.346,0,0,1-496.524-37.536Zm7.251,2.434a1.373,1.373,0,0,1-1.335-1.405v-4.14a1.373,1.373,0,0,1,1.335-1.405h16.937A1.374,1.374,0,0,1-471-40.648v4.14a1.374,1.374,0,0,1-1.337,1.405Zm-.607-5.546v4.14a.624.624,0,0,0,.607.639h16.937a.624.624,0,0,0,.608-.639v-4.14a.624.624,0,0,0-.608-.639h-16.937A.624.624,0,0,0-489.881-40.648Zm11.7,3.912a.624.624,0,0,1-.608-.639v-2.248a.624.624,0,0,1,.608-.639h.79a.623.623,0,0,1,.607.639v2.248a.623.623,0,0,1-.607.639Zm.122-.767h.548v-1.991h-.548Zm2.736.688a.625.625,0,0,1-.608-.64V-39.7a.624.624,0,0,1,.608-.639h1.581a.624.624,0,0,1,.607.639v2.248a.625.625,0,0,1-.607.64Zm.122-.768h1.338v-1.991H-475.2Zm-19.346-6.551-2.2-1.678-2.2,1.678a.351.351,0,0,1-.428,0,.4.4,0,0,1-.132-.428l.838-2.716-2.194-1.678a.391.391,0,0,1-.132-.428.365.365,0,0,1,.346-.266h2.712l.838-2.716a.367.367,0,0,1,.347-.265.367.367,0,0,1,.347.265l.838,2.716h2.712a.367.367,0,0,1,.347.266.4.4,0,0,1-.132.428l-2.2,1.678.838,2.716a.393.393,0,0,1-.132.428.349.349,0,0,1-.215.074A.342.342,0,0,1-494.544-44.133Zm-1.98-2.462,1.5,1.149-.574-1.859a.393.393,0,0,1,.132-.428l1.5-1.149h-1.856a.366.366,0,0,1-.346-.265l-.574-1.859-.574,1.859a.366.366,0,0,1-.346.265h-1.856l1.5,1.149a.393.393,0,0,1,.132.428l-.574,1.859,1.5-1.149a.355.355,0,0,1,.215-.073A.353.353,0,0,1-496.524-46.6Zm7.251,2.458a1.373,1.373,0,0,1-1.335-1.405v-4.139a1.374,1.374,0,0,1,1.335-1.407h16.937A1.374,1.374,0,0,1-471-49.682v4.139a1.374,1.374,0,0,1-1.337,1.405Zm-.607-5.544v4.139a.624.624,0,0,0,.607.639h16.937a.624.624,0,0,0,.608-.639v-4.139a.625.625,0,0,0-.608-.64h-16.937A.625.625,0,0,0-489.881-49.682Zm7.963,3.829a.625.625,0,0,1-.608-.64v-2.248a.624.624,0,0,1,.608-.639h8.18a.624.624,0,0,1,.607.639v2.248a.625.625,0,0,1-.607.64Zm.122-.768h7.936v-1.991H-481.8Zm-4.323.768a.624.624,0,0,1-.606-.64v-2.248a.623.623,0,0,1,.606-.639h.791a.624.624,0,0,1,.607.639v2.248a.625.625,0,0,1-.607.64Zm.122-.768h.548v-1.991H-486Zm-8.547-6.882-2.2-1.678-2.2,1.678a.347.347,0,0,1-.428,0,.4.4,0,0,1-.132-.428l.838-2.716-2.194-1.678a.391.391,0,0,1-.132-.428.365.365,0,0,1,.346-.266h2.712l.838-2.716a.367.367,0,0,1,.347-.265.367.367,0,0,1,.347.265l.838,2.716h2.712a.367.367,0,0,1,.347.266.4.4,0,0,1-.132.428l-2.2,1.678.838,2.716a.393.393,0,0,1-.132.428.348.348,0,0,1-.215.074A.342.342,0,0,1-494.544-53.5Zm-1.98-2.461,1.5,1.147-.574-1.858a.4.4,0,0,1,.132-.429l1.5-1.149h-1.856a.366.366,0,0,1-.346-.265l-.574-1.859-.574,1.859a.366.366,0,0,1-.346.265h-1.856l1.5,1.149a.4.4,0,0,1,.132.429l-.574,1.858,1.5-1.147a.348.348,0,0,1,.215-.074A.346.346,0,0,1-496.524-55.964Zm7.251,2.434a1.374,1.374,0,0,1-1.335-1.407v-4.139a1.373,1.373,0,0,1,1.335-1.405h16.937A1.374,1.374,0,0,1-471-59.076v4.139a1.374,1.374,0,0,1-1.337,1.407Zm-.607-5.546v4.139a.625.625,0,0,0,.607.64h16.937a.625.625,0,0,0,.608-.64v-4.139a.624.624,0,0,0-.608-.639h-16.937A.624.624,0,0,0-489.881-59.076Zm12.5,3.833a.624.624,0,0,1-.608-.639V-58.13a.624.624,0,0,1,.608-.639h3.648a.624.624,0,0,1,.607.639v2.248a.624.624,0,0,1-.607.639Zm.122-.767h3.4V-58h-3.4Zm-3.519.767a.624.624,0,0,1-.608-.639V-58.13a.624.624,0,0,1,.608-.639h.79a.624.624,0,0,1,.607.639v2.248a.624.624,0,0,1-.607.639Zm.121-.767h.548V-58h-.548Z" transform="translate(516 79)" fill="#fff" stroke="rgba(0,0,0,0)" stroke-width="1"/>
  </g>
</svg>
