<svg xmlns="http://www.w3.org/2000/svg" xmlns:xlink="http://www.w3.org/1999/xlink" width="60" height="60" viewBox="0 0 60 60">
  <defs>
    <clipPath id="clip-icon-ecucation">
      <rect width="60" height="60"/>
    </clipPath>
  </defs>
  <g id="icon-ecucation" clip-path="url(#clip-icon-ecucation)">
    <rect width="60" height="60" fill="#fff"/>
    <circle id="Ellipse_14" data-name="Ellipse 14" cx="30" cy="30" r="30" fill="#bbb"/>
    <path id="Union_35" data-name="Union 35" d="M-328.373-119a.612.612,0,0,1-.423-.171.2.2,0,0,1-.038-.038.636.636,0,0,1-.167-.432v-13.316s.005-.012.005-.016v-.034a.083.083,0,0,1,0-.031.107.107,0,0,1,0-.034c0-.008,0-.018,0-.03s0-.018.008-.03a.089.089,0,0,0,.008-.031l.013-.026c0-.012.008-.02.012-.034a.062.062,0,0,0,.008-.022.164.164,0,0,1,.022-.034.078.078,0,0,1,.012-.022.151.151,0,0,1,.02-.034s0-.008.008-.008l3.243-4.418a.631.631,0,0,1,.5-.254h2.357l8.146-4.169v-6.176A.633.633,0,0,1-314-149h5.431a.634.634,0,0,1,.435.175.667.667,0,0,1,.154.244.649.649,0,0,1-.184.71l-1.382,1.2,1.382,1.2a.647.647,0,0,1,.184.71.623.623,0,0,1-.589.42h-4.8v2.16l8.143,4.169h2.356a.623.623,0,0,1,.5.254l3.247,4.418a.014.014,0,0,1,0,.008l.024.034a.027.027,0,0,1,.009.022.24.24,0,0,1,.02.034.038.038,0,0,1,.008.022.154.154,0,0,1,.016.034.059.059,0,0,0,.009.026c0,.009,0,.022.008.031s0,.022.008.03,0,.022,0,.03a.109.109,0,0,1,0,.034.064.064,0,0,1,.005.031c0,.012,0,.02,0,.034v13.332a.635.635,0,0,1-.628.641Zm23.624-1.284h4.494v-12.031h-4.494Zm-6.376-6.377a.571.571,0,0,1,.564.578v5.8H-306v-16.694l-8-4.093-8,4.093v16.694h4.557v-5.8a.569.569,0,0,1,.564-.578Zm-2.31,6.377h1.745v-5.222h-1.745Zm-2.874,0h1.745v-5.222h-1.745Zm-11.438,0h4.5v-12.031h-4.5Zm23-13.315h3.864l-2.3-3.131h-1.562Zm-22.367,0h3.869v-3.131h-1.567Zm13.744-12.027h3.1l-.644-.556a.658.658,0,0,1-.221-.491.65.65,0,0,1,.221-.487l.644-.556h-3.1Zm10.242,22.865v-1.408a.635.635,0,0,1,.626-.643.635.635,0,0,1,.628.643v1.408a.634.634,0,0,1-.628.641A.634.634,0,0,1-303.13-122.76Zm-22.994,0v-1.408a.635.635,0,0,1,.626-.643.635.635,0,0,1,.628.643v1.408a.634.634,0,0,1-.628.641A.634.634,0,0,1-326.124-122.76Zm17.246-1.914v-1.409a.635.635,0,0,1,.626-.643.635.635,0,0,1,.626.643v1.409a.634.634,0,0,1-.626.641A.634.634,0,0,1-308.878-124.674Zm-11.5,0v-1.409a.634.634,0,0,1,.626-.643.635.635,0,0,1,.626.643v1.409a.634.634,0,0,1-.626.641A.634.634,0,0,1-320.374-124.674Zm17.244-3.185v-1.409a.634.634,0,0,1,.626-.641.635.635,0,0,1,.628.641v1.409a.634.634,0,0,1-.628.641A.634.634,0,0,1-303.13-127.859Zm-22.994,0v-1.409a.634.634,0,0,1,.626-.641.635.635,0,0,1,.628.641v1.409a.634.634,0,0,1-.628.641A.634.634,0,0,1-326.124-127.859Zm17.246-1.916v-1.408a.635.635,0,0,1,.626-.643.635.635,0,0,1,.626.643v1.408a.634.634,0,0,1-.626.641A.634.634,0,0,1-308.878-129.774Zm-5.748,0v-1.408a.635.635,0,0,1,.626-.643.635.635,0,0,1,.626.643v1.408a.634.634,0,0,1-.626.641A.634.634,0,0,1-314.626-129.774Zm-5.748,0v-1.408a.634.634,0,0,1,.626-.643.635.635,0,0,1,.626.643v1.408a.634.634,0,0,1-.626.641A.634.634,0,0,1-320.374-129.774Zm4.362-6.4A2.036,2.036,0,0,1-314-138.235a2.035,2.035,0,0,1,2.01,2.057A2.038,2.038,0,0,1-314-134.12,2.038,2.038,0,0,1-316.013-136.177Zm1.192,0a.831.831,0,0,0,.822.838.831.831,0,0,0,.819-.838.831.831,0,0,0-.819-.838A.831.831,0,0,0-314.821-136.177Z" transform="translate(344 161)" fill="#fff" stroke="rgba(0,0,0,0)" stroke-width="1"/>
  </g>
</svg>
