<svg xmlns="http://www.w3.org/2000/svg" xmlns:xlink="http://www.w3.org/1999/xlink" width="60" height="60" viewBox="0 0 60 60">
  <defs>
    <clipPath id="clip-icon-exp">
      <rect width="60" height="60"/>
    </clipPath>
  </defs>
  <g id="icon-exp" clip-path="url(#clip-icon-exp)">
    <rect width="60" height="60" fill="#fff"/>
    <circle id="Ellipse_15" data-name="Ellipse 15" cx="30" cy="30" r="30" fill="#bbb"/>
    <path id="Union_36" data-name="Union 36" d="M-369.93,186a2.073,2.073,0,0,1-2.07-2.072V164.364a2.072,2.072,0,0,1,2.07-2.071h7.317v-.979A2.315,2.315,0,0,1-360.3,159h6.1a2.315,2.315,0,0,1,2.311,2.314v.979h7.825a2.073,2.073,0,0,1,2.07,2.071v19.564a2.074,2.074,0,0,1-2.07,2.072Zm-.833-2.072a.834.834,0,0,0,.833.833h25.861a.834.834,0,0,0,.833-.833v-7.937a2.043,2.043,0,0,1-.833.178H-369.93a2.043,2.043,0,0,1-.833-.178Zm0-19.564V174.1a.835.835,0,0,0,.833.834h25.861a.835.835,0,0,0,.833-.834v-9.734a.834.834,0,0,0-.833-.833H-369.93A.834.834,0,0,0-370.763,164.364Zm9.387-3.05v.979h8.246v-.979a1.076,1.076,0,0,0-1.075-1.076h-6.1A1.076,1.076,0,0,0-361.376,161.314Zm3.183,10.379a1.2,1.2,0,0,1,1.2-1.2,1.2,1.2,0,0,1,1.2,1.2,1.2,1.2,0,0,1-1.2,1.2A1.2,1.2,0,0,1-358.193,171.693Z" transform="translate(387 -143)" fill="#fff"/>
  </g>
</svg>
