<svg width="40" height="40" viewBox="0 0 40 40" fill="none" xmlns="http://www.w3.org/2000/svg">
<rect width="40" height="40" rx="20" fill="#00B14F"/>
<path d="M25.81 13.49V14.23L22.27 12.18C20.93 11.41 19.06 11.41 17.73 12.18L14.19 14.24V13.49C14.19 11.24 15.42 10 17.67 10H22.33C24.58 10 25.81 11.24 25.81 13.49Z" fill="white"/>
<path d="M25.84 15.97L25.7 15.9L24.34 15.12L21.52 13.49C20.66 12.99 19.34 12.99 18.48 13.49L15.66 15.11L14.3 15.91L14.12 16C12.37 17.18 12.25 17.4 12.25 19.29V23.81C12.25 25.7 12.37 25.92 14.16 27.13L18.48 29.62C18.91 29.88 19.45 29.99 20 29.99C20.54 29.99 21.09 29.87 21.52 29.62L25.88 27.1C27.64 25.92 27.75 25.71 27.75 23.81V19.29C27.75 17.4 27.63 17.18 25.84 15.97ZM22.79 21.5L22.18 22.25C22.08 22.36 22.01 22.57 22.02 22.72L22.08 23.68C22.12 24.27 21.7 24.57 21.15 24.36L20.26 24C20.12 23.95 19.89 23.95 19.75 24L18.86 24.35C18.31 24.57 17.89 24.26 17.93 23.67L17.99 22.71C18 22.56 17.93 22.35 17.83 22.24L17.21 21.5C16.83 21.05 17 20.55 17.57 20.4L18.5 20.16C18.65 20.12 18.82 19.98 18.9 19.86L19.42 19.06C19.74 18.56 20.25 18.56 20.58 19.06L21.1 19.86C21.18 19.99 21.36 20.12 21.5 20.16L22.43 20.4C23 20.55 23.17 21.05 22.79 21.5Z" fill="white"/>
</svg>
