<svg width="40" height="40" viewBox="0 0 40 40" fill="none" xmlns="http://www.w3.org/2000/svg">
<rect width="40" height="40" rx="20" fill="#00B14F"/>
<path d="M25.39 23.67L21.35 20H18.64L14.6 23.67C13.47 24.69 13.1 26.26 13.65 27.68C14.2 29.09 15.54 30 17.05 30H22.94C24.46 30 25.79 29.09 26.34 27.68C26.89 26.26 26.52 24.69 25.39 23.67ZM21.82 26.14H18.18C17.8 26.14 17.5 25.83 17.5 25.46C17.5 25.09 17.81 24.78 18.18 24.78H21.82C22.2 24.78 22.5 25.09 22.5 25.46C22.5 25.83 22.19 26.14 21.82 26.14Z" fill="white"/>
<path d="M26.35 12.32C25.8 10.91 24.46 10 22.95 10H17.05C15.54 10 14.2 10.91 13.65 12.32C13.11 13.74 13.48 15.31 14.61 16.33L18.65 20H21.36L25.4 16.33C26.52 15.31 26.89 13.74 26.35 12.32ZM21.82 15.23H18.18C17.8 15.23 17.5 14.92 17.5 14.55C17.5 14.18 17.81 13.87 18.18 13.87H21.82C22.2 13.87 22.5 14.18 22.5 14.55C22.5 14.92 22.19 15.23 21.82 15.23Z" fill="white"/>
</svg>
