<svg width="32" height="32" viewBox="0 0 32 32" fill="none" xmlns="http://www.w3.org/2000/svg">
<rect width="32" height="32" rx="16" fill="#00B14F"/>
<path d="M15.0667 10.7667C15.0667 10.8934 14.96 11 14.8333 11H14.08C12.64 11 11.4667 12.1734 11.4667 13.6134V19.7667C11.4667 19.8934 11.36 20 11.2333 20H10.7667C9.97334 20 9.33334 19.36 9.33334 18.5667V10.7667C9.33334 9.97337 9.97334 9.33337 10.7667 9.33337H13.6333C14.4267 9.33337 15.0667 9.97337 15.0667 10.7667Z" fill="white"/>
<path d="M22.6667 10.7667V18.5667C22.6667 19.36 22.0267 20 21.2333 20H20.8133C20.6867 20 20.58 19.8934 20.58 19.7667V13.6134C20.58 12.1734 19.4067 11 17.9667 11H17.1667C17.04 11 16.9333 10.8934 16.9333 10.7667C16.9333 9.97337 17.5733 9.33337 18.3667 9.33337H21.2333C22.0267 9.33337 22.6667 9.97337 22.6667 10.7667Z" fill="white"/>
<path d="M17.9667 12H14.08C13.1867 12 12.4667 12.72 12.4667 13.6133V21.0533C12.4667 21.9467 13.1867 22.6667 14.08 22.6667H15.1667C15.3533 22.6667 15.5 22.52 15.5 22.3333V20.6667C15.5 20.3933 15.7267 20.1667 16 20.1667C16.2733 20.1667 16.5 20.3933 16.5 20.6667V22.3333C16.5 22.52 16.6467 22.6667 16.8333 22.6667H17.9733C18.86 22.6667 19.58 21.9467 19.58 21.06V13.6133C19.58 12.72 18.86 12 17.9667 12ZM17.3333 17.8333H14.6667C14.3933 17.8333 14.1667 17.6067 14.1667 17.3333C14.1667 17.06 14.3933 16.8333 14.6667 16.8333H17.3333C17.6067 16.8333 17.8333 17.06 17.8333 17.3333C17.8333 17.6067 17.6067 17.8333 17.3333 17.8333ZM17.3333 15.8333H14.6667C14.3933 15.8333 14.1667 15.6067 14.1667 15.3333C14.1667 15.06 14.3933 14.8333 14.6667 14.8333H17.3333C17.6067 14.8333 17.8333 15.06 17.8333 15.3333C17.8333 15.6067 17.6067 15.8333 17.3333 15.8333Z" fill="white"/>
</svg>
