<svg width="32" height="32" viewBox="0 0 32 32" fill="none" xmlns="http://www.w3.org/2000/svg">
<rect width="32" height="32" rx="16" fill="#00B14F"/>
<path d="M21.7467 13.6334C21.0467 10.5534 18.36 9.16675 16 9.16675C16 9.16675 16 9.16675 15.9933 9.16675C13.64 9.16675 10.9467 10.5467 10.2467 13.6267C9.46667 17.0667 11.5733 19.9801 13.48 21.8134C14.1867 22.4934 15.0933 22.8334 16 22.8334C16.9067 22.8334 17.8133 22.4934 18.5133 21.8134C20.42 19.9801 22.5267 17.0734 21.7467 13.6334ZM16 16.9734C14.84 16.9734 13.9 16.0334 13.9 14.8734C13.9 13.7134 14.84 12.7734 16 12.7734C17.16 12.7734 18.1 13.7134 18.1 14.8734C18.1 16.0334 17.16 16.9734 16 16.9734Z" fill="white"/>
</svg>
