<svg width="20" height="20" viewBox="0 0 20 20" fill="none" xmlns="http://www.w3.org/2000/svg">
<path d="M13.3333 18.9585H6.66665C2.81665 18.9585 2.09999 17.1669 1.91665 15.4252L1.29165 8.75021C1.19999 7.87521 1.17499 6.58354 2.04165 5.61688C2.79165 4.78354 4.03332 4.38354 5.83332 4.38354H14.1667C15.975 4.38354 17.2167 4.79188 17.9583 5.61688C18.825 6.58354 18.8 7.87521 18.7083 8.75854L18.0833 15.4169C17.9 17.1669 17.1833 18.9585 13.3333 18.9585ZM5.83332 5.62521C4.42499 5.62521 3.45832 5.90021 2.96665 6.45021C2.55832 6.90021 2.42499 7.59188 2.53332 8.62521L3.15832 15.3002C3.29999 16.6169 3.65832 17.7085 6.66665 17.7085H13.3333C16.3333 17.7085 16.7 16.6169 16.8417 15.2919L17.4667 8.63354C17.575 7.59188 17.4417 6.90021 17.0333 6.45021C16.5417 5.90021 15.575 5.62521 14.1667 5.62521H5.83332Z" fill="white"/>
<path d="M13.3333 5.62533C12.9916 5.62533 12.7083 5.34199 12.7083 5.00033V4.33366C12.7083 2.85033 12.7083 2.29199 10.6666 2.29199H9.33329C7.29163 2.29199 7.29163 2.85033 7.29163 4.33366V5.00033C7.29163 5.34199 7.00829 5.62533 6.66663 5.62533C6.32496 5.62533 6.04163 5.34199 6.04163 5.00033V4.33366C6.04163 2.86699 6.04163 1.04199 9.33329 1.04199H10.6666C13.9583 1.04199 13.9583 2.86699 13.9583 4.33366V5.00033C13.9583 5.34199 13.675 5.62533 13.3333 5.62533Z" fill="white"/>
<path d="M10 13.9586C7.70837 13.9586 7.70837 12.5419 7.70837 11.6919V10.8336C7.70837 9.65858 7.99171 9.37524 9.16671 9.37524H10.8334C12.0084 9.37524 12.2917 9.65858 12.2917 10.8336V11.6669C12.2917 12.5336 12.2917 13.9586 10 13.9586ZM8.95837 10.6252C8.95837 10.6919 8.95837 10.7669 8.95837 10.8336V11.6919C8.95837 12.5502 8.95837 12.7086 10 12.7086C11.0417 12.7086 11.0417 12.5752 11.0417 11.6836V10.8336C11.0417 10.7669 11.0417 10.6919 11.0417 10.6252C10.975 10.6252 10.9 10.6252 10.8334 10.6252H9.16671C9.10004 10.6252 9.02504 10.6252 8.95837 10.6252Z" fill="white"/>
<path d="M11.6666 12.3086C11.3583 12.3086 11.0833 12.0753 11.05 11.7586C11.0083 11.4169 11.25 11.1003 11.5916 11.0586C13.7916 10.7836 15.9 9.95028 17.675 8.65861C17.95 8.45028 18.3416 8.51695 18.55 8.80028C18.75 9.07528 18.6916 9.46695 18.4083 9.67528C16.4583 11.0919 14.1583 12.0003 11.7416 12.3086C11.7166 12.3086 11.6916 12.3086 11.6666 12.3086Z" fill="white"/>
<path d="M8.33333 12.3169C8.30833 12.3169 8.28333 12.3169 8.25833 12.3169C5.97499 12.0586 3.74999 11.2252 1.82499 9.90858C1.54166 9.71691 1.46666 9.32524 1.65833 9.04191C1.84999 8.75858 2.24166 8.68358 2.52499 8.87524C4.28333 10.0752 6.30833 10.8336 8.39166 11.0752C8.73333 11.1169 8.98333 11.4252 8.94166 11.7669C8.91666 12.0836 8.64999 12.3169 8.33333 12.3169Z" fill="white"/>
</svg>
