<svg width="20" height="20" viewBox="0 0 20 20" fill="none" xmlns="http://www.w3.org/2000/svg">
<path d="M9.99984 15.7918C7.8165 15.7918 6.0415 14.0168 6.0415 11.8335C6.0415 9.65012 7.8165 7.87512 9.99984 7.87512C12.1832 7.87512 13.9582 9.65012 13.9582 11.8335C13.9582 14.0168 12.1832 15.7918 9.99984 15.7918ZM9.99984 9.12512C8.50817 9.12512 7.2915 10.3418 7.2915 11.8335C7.2915 13.3251 8.50817 14.5418 9.99984 14.5418C11.4915 14.5418 12.7082 13.3251 12.7082 11.8335C12.7082 10.3418 11.4915 9.12512 9.99984 9.12512Z" fill="white"/>
<path d="M9.16657 13.2918C8.95824 13.2918 8.7499 13.1835 8.63324 12.9918C8.45824 12.6918 8.5499 12.3085 8.8499 12.1335L9.48324 11.7502C9.5499 11.7168 9.58324 11.6418 9.58324 11.5752V10.8002C9.58324 10.4585 9.86657 10.1752 10.2082 10.1752C10.5499 10.1752 10.8332 10.4502 10.8332 10.7918V11.5668C10.8332 12.0752 10.5582 12.5585 10.1249 12.8168L9.49157 13.2002C9.39157 13.2668 9.2749 13.2918 9.16657 13.2918Z" fill="white"/>
<path d="M13.3332 18.9584H6.66653C2.81653 18.9584 2.09986 17.1668 1.91653 15.4251L1.29153 8.75009C1.19986 7.87509 1.17486 6.58342 2.04153 5.61676C2.79153 4.78342 4.0332 4.38342 5.8332 4.38342H14.1665C15.9749 4.38342 17.2165 4.79176 17.9582 5.61676C18.8249 6.58342 18.7999 7.87509 18.7082 8.75842L18.0832 15.4168C17.8999 17.1668 17.1832 18.9584 13.3332 18.9584ZM5.8332 5.62509C4.42486 5.62509 3.4582 5.90009 2.96653 6.45009C2.5582 6.90009 2.42486 7.59176 2.5332 8.62509L3.1582 15.3001C3.29986 16.6168 3.6582 17.7084 6.66653 17.7084H13.3332C16.3332 17.7084 16.6999 16.6168 16.8415 15.2918L17.4665 8.63342C17.5749 7.59176 17.4415 6.90009 17.0332 6.45009C16.5415 5.90009 15.5749 5.62509 14.1665 5.62509H5.8332Z" fill="white"/>
<path d="M13.3332 5.62508C12.9915 5.62508 12.7082 5.34175 12.7082 5.00008V4.33341C12.7082 2.85008 12.7082 2.29175 10.6665 2.29175H9.33317C7.2915 2.29175 7.2915 2.85008 7.2915 4.33341V5.00008C7.2915 5.34175 7.00817 5.62508 6.6665 5.62508C6.32484 5.62508 6.0415 5.34175 6.0415 5.00008V4.33341C6.0415 2.86675 6.0415 1.04175 9.33317 1.04175H10.6665C13.9582 1.04175 13.9582 2.86675 13.9582 4.33341V5.00008C13.9582 5.34175 13.6748 5.62508 13.3332 5.62508Z" fill="white"/>
<path d="M13.3416 11.9918C13.0582 11.9918 12.8082 11.8001 12.7332 11.5168C12.6499 11.1834 12.8499 10.8418 13.1832 10.7584C14.8082 10.3501 16.3166 9.64176 17.6666 8.65842C17.9416 8.45842 18.3332 8.51676 18.5416 8.80009C18.7416 9.07509 18.6832 9.46675 18.3999 9.67509C16.9166 10.7501 15.2666 11.5251 13.4832 11.9751C13.4416 11.9834 13.3916 11.9918 13.3416 11.9918Z" fill="white"/>
<path d="M6.66678 12.0168C6.61678 12.0168 6.56678 12.0085 6.51678 12.0002C4.84178 11.5918 3.26678 10.8835 1.82511 9.90015C1.54178 9.70849 1.46678 9.31682 1.65845 9.03349C1.85011 8.75015 2.24178 8.67515 2.52511 8.86682C3.84178 9.76682 5.27511 10.4085 6.80845 10.7835C7.14178 10.8668 7.35011 11.2002 7.26678 11.5418C7.20845 11.8252 6.95011 12.0168 6.66678 12.0168Z" fill="white"/>
</svg>
