<svg width="20" height="20" viewBox="0 0 20 20" fill="none" xmlns="http://www.w3.org/2000/svg">
<path d="M10.8332 18.9584H7.49984C2.97484 18.9584 1.0415 17.0251 1.0415 12.5001V7.50008C1.0415 2.97508 2.97484 1.04175 7.49984 1.04175H12.4998C17.0248 1.04175 18.9582 2.97508 18.9582 7.50008V10.8334C18.9582 11.1751 18.6748 11.4584 18.3332 11.4584C17.9915 11.4584 17.7082 11.1751 17.7082 10.8334V7.50008C17.7082 3.65841 16.3415 2.29175 12.4998 2.29175H7.49984C3.65817 2.29175 2.2915 3.65841 2.2915 7.50008V12.5001C2.2915 16.3417 3.65817 17.7084 7.49984 17.7084H10.8332C11.1748 17.7084 11.4582 17.9917 11.4582 18.3334C11.4582 18.6751 11.1748 18.9584 10.8332 18.9584Z" fill="white"/>
<path d="M6.10825 12.7001C5.97492 12.7001 5.84159 12.6585 5.72492 12.5668C5.44992 12.3585 5.39994 11.9668 5.60827 11.6918L7.59158 9.1168C7.83325 8.80846 8.17493 8.60847 8.56659 8.55847C8.95826 8.50847 9.34158 8.6168 9.64992 8.85847L11.1749 10.0585C11.2333 10.1085 11.2916 10.1001 11.3333 10.1001C11.3666 10.1001 11.4249 10.0835 11.4749 10.0168L13.3999 7.53346C13.6082 7.25846 13.9999 7.20846 14.2749 7.42513C14.5499 7.63346 14.5999 8.02513 14.3833 8.30013L12.4583 10.7835C12.2166 11.0918 11.8749 11.2918 11.4833 11.3335C11.0999 11.3835 10.7083 11.2751 10.4083 11.0335L8.88326 9.83346C8.82493 9.78346 8.75826 9.78346 8.72493 9.7918C8.69159 9.7918 8.63325 9.80847 8.58325 9.87513L6.59994 12.4501C6.48327 12.6168 6.29992 12.7001 6.10825 12.7001Z" fill="white"/>
<path d="M16.8834 18.9585C16.5917 18.9585 16.2167 18.8668 15.775 18.6002L15.5667 18.4751C15.5084 18.4418 15.3334 18.4418 15.275 18.4751L15.0667 18.6002C14.1084 19.1752 13.5001 18.9335 13.2334 18.7335C12.9584 18.5335 12.5334 18.0335 12.7834 16.9335L12.8251 16.7585C12.8417 16.6918 12.7917 16.5335 12.75 16.4835L12.4584 16.1918C11.9667 15.6918 11.775 15.1085 11.9417 14.5835C12.1084 14.0668 12.6001 13.7002 13.2917 13.5835L13.6084 13.5335C13.6667 13.5168 13.7834 13.4335 13.8167 13.3752L14.05 12.9001C14.375 12.2418 14.8751 11.8668 15.4251 11.8668C15.9751 11.8668 16.4751 12.2418 16.8001 12.9001L17.0334 13.3668C17.0667 13.4251 17.1834 13.5085 17.2417 13.5251L17.5584 13.5751C18.2501 13.6918 18.7417 14.0585 18.9084 14.5752C19.0751 15.0918 18.8917 15.6751 18.3917 16.1835L18.1 16.4752C18.0584 16.5252 18.0084 16.6835 18.0251 16.7502L18.0667 16.9251C18.3167 18.0251 17.8917 18.5252 17.6167 18.7252C17.4667 18.8418 17.2251 18.9585 16.8834 18.9585ZM15.4084 13.1252C15.4 13.1335 15.2834 13.2168 15.1667 13.4585L14.9334 13.9335C14.7334 14.3418 14.2584 14.6918 13.8167 14.7668L13.5001 14.8168C13.2334 14.8585 13.1417 14.9502 13.1334 14.9668C13.1334 14.9835 13.1584 15.1168 13.35 15.3085L13.6417 15.6002C13.9834 15.9502 14.1584 16.5501 14.05 17.0251L14.0084 17.2002C13.9334 17.5252 13.9667 17.6668 13.9834 17.7168C14.0084 17.7001 14.15 17.6835 14.425 17.5168L14.6334 17.3918C15.0917 17.1168 15.7501 17.1168 16.2084 17.3918L16.4167 17.5168C16.7584 17.7252 16.9001 17.7002 16.9084 17.7002C16.8751 17.7002 16.9167 17.5335 16.8417 17.2002L16.8001 17.0251C16.6917 16.5418 16.8667 15.9502 17.2084 15.6002L17.5 15.3085C17.6917 15.1168 17.7167 14.9835 17.7167 14.9585C17.7084 14.9418 17.6167 14.8585 17.3501 14.8085L17.0334 14.7585C16.5834 14.6835 16.1167 14.3335 15.9167 13.9252L15.6834 13.4585C15.5501 13.2085 15.4334 13.1335 15.4084 13.1252Z" fill="white"/>
</svg>
