<svg width="20" height="20" viewBox="0 0 20 20" fill="none" xmlns="http://www.w3.org/2000/svg">
<path d="M15.2415 18.9584H4.75813C1.9248 18.9584 1.7748 17.4001 1.6498 16.1417L1.31646 11.9667C1.24146 11.1584 1.4748 10.3501 1.99146 9.70008C2.60813 8.95008 3.48313 8.54175 4.4248 8.54175H15.5748C16.4998 8.54175 17.3748 8.95008 17.9665 9.65841L18.1081 9.85008C18.5581 10.4667 18.7581 11.2167 18.6831 11.9751L18.3498 16.1334C18.2248 17.4001 18.0748 18.9584 15.2415 18.9584ZM4.4248 9.79175C3.86646 9.79175 3.33313 10.0417 2.98313 10.4751L2.9248 10.5334C2.65813 10.8751 2.51646 11.3584 2.56646 11.8584L2.8998 16.0334C3.01646 17.2501 3.06646 17.7084 4.75813 17.7084H15.2415C16.9415 17.7084 16.9831 17.2501 17.0998 16.0251L17.4331 11.8501C17.4831 11.3584 17.3415 10.8667 17.0165 10.4834L16.9331 10.3834C16.5581 9.99175 16.0831 9.79175 15.5665 9.79175H4.4248Z" fill="white"/>
<path d="M17.0832 10.1834C16.7415 10.1834 16.4582 9.90011 16.4582 9.55844V8.06677C16.4582 5.58344 16.0248 5.15011 13.5415 5.15011H11.4165C10.4748 5.15011 10.1498 4.81677 9.7915 4.34177L8.7165 2.91677C8.34984 2.43344 8.2665 2.31677 7.5165 2.31677H6.45817C3.97484 2.31677 3.5415 2.75011 3.5415 5.23344V9.52511C3.5415 9.86677 3.25817 10.1501 2.9165 10.1501C2.57484 10.1501 2.2915 9.86677 2.2915 9.52511V5.23344C2.2915 2.04177 3.2665 1.06677 6.45817 1.06677H7.52484C8.80817 1.06677 9.20817 1.48344 9.72484 2.16677L10.7915 3.58344C11.0165 3.88344 11.0332 3.90011 11.4248 3.90011H13.5498C16.7415 3.90011 17.7165 4.87511 17.7165 8.06677V9.55844C17.7082 9.90011 17.4248 10.1834 17.0832 10.1834Z" fill="white"/>
<path d="M12.1417 14.7917H7.8584C7.51673 14.7917 7.2334 14.5084 7.2334 14.1667C7.2334 13.8251 7.51673 13.5417 7.8584 13.5417H12.1417C12.4834 13.5417 12.7667 13.8251 12.7667 14.1667C12.7667 14.5084 12.4917 14.7917 12.1417 14.7917Z" fill="white"/>
</svg>
